G04 EAGLE Gerber RS-274X export*
G75*
%MOMM*%
%FSLAX34Y34*%
%LPD*%
%INSilkscreen Top*%
%IPPOS*%
%AMOC8*
5,1,8,0,0,1.08239X$1,22.5*%
G01*
G04 Define Apertures*
%ADD10C,0.101600*%
G36*
X19100Y35160D02*
X11366Y35160D01*
X11366Y36500D01*
X14511Y36500D01*
X14511Y45994D01*
X11725Y44006D01*
X11725Y45495D01*
X14642Y47501D01*
X16096Y47501D01*
X16096Y36500D01*
X19100Y36500D01*
X19100Y35160D01*
G37*
G36*
X39074Y25160D02*
X30902Y25160D01*
X30902Y26272D01*
X31138Y26770D01*
X31398Y27237D01*
X31683Y27674D01*
X31993Y28081D01*
X32319Y28464D01*
X32653Y28828D01*
X32995Y29173D01*
X33346Y29500D01*
X34052Y30112D01*
X34752Y30678D01*
X35414Y31221D01*
X36008Y31764D01*
X36275Y32039D01*
X36515Y32320D01*
X36728Y32608D01*
X36915Y32903D01*
X37066Y33210D01*
X37174Y33538D01*
X37239Y33885D01*
X37261Y34251D01*
X37252Y34498D01*
X37224Y34731D01*
X37177Y34949D01*
X37112Y35153D01*
X37028Y35343D01*
X36926Y35519D01*
X36805Y35681D01*
X36665Y35828D01*
X36509Y35959D01*
X36338Y36073D01*
X36153Y36169D01*
X35954Y36248D01*
X35739Y36310D01*
X35511Y36353D01*
X35268Y36380D01*
X35010Y36388D01*
X34764Y36380D01*
X34528Y36354D01*
X34304Y36311D01*
X34091Y36252D01*
X33889Y36175D01*
X33699Y36081D01*
X33519Y35969D01*
X33350Y35841D01*
X33195Y35697D01*
X33058Y35540D01*
X32937Y35368D01*
X32832Y35183D01*
X32745Y34984D01*
X32674Y34771D01*
X32621Y34544D01*
X32584Y34304D01*
X30972Y34453D01*
X31030Y34813D01*
X31116Y35155D01*
X31231Y35478D01*
X31374Y35782D01*
X31545Y36067D01*
X31745Y36333D01*
X31973Y36580D01*
X32229Y36809D01*
X32509Y37014D01*
X32808Y37192D01*
X33127Y37343D01*
X33465Y37466D01*
X33822Y37562D01*
X34199Y37630D01*
X34595Y37671D01*
X35010Y37685D01*
X35463Y37671D01*
X35889Y37630D01*
X36288Y37561D01*
X36660Y37465D01*
X37005Y37341D01*
X37323Y37190D01*
X37614Y37011D01*
X37878Y36804D01*
X38113Y36573D01*
X38317Y36318D01*
X38489Y36040D01*
X38630Y35739D01*
X38740Y35415D01*
X38818Y35068D01*
X38865Y34697D01*
X38881Y34304D01*
X38861Y33945D01*
X38799Y33588D01*
X38696Y33232D01*
X38553Y32876D01*
X38369Y32522D01*
X38144Y32167D01*
X37880Y31812D01*
X37576Y31457D01*
X37178Y31054D01*
X36632Y30553D01*
X35939Y29955D01*
X35097Y29259D01*
X34620Y28857D01*
X34193Y28476D01*
X33818Y28115D01*
X33495Y27774D01*
X33218Y27447D01*
X32982Y27125D01*
X32789Y26810D01*
X32636Y26500D01*
X39074Y26500D01*
X39074Y25160D01*
G37*
G36*
X55001Y34985D02*
X54544Y34998D01*
X54111Y35038D01*
X53702Y35104D01*
X53316Y35196D01*
X52954Y35315D01*
X52616Y35460D01*
X52301Y35632D01*
X52010Y35830D01*
X51745Y36054D01*
X51508Y36303D01*
X51300Y36578D01*
X51120Y36878D01*
X50968Y37203D01*
X50845Y37554D01*
X50750Y37929D01*
X50683Y38331D01*
X52312Y38479D01*
X52360Y38214D01*
X52423Y37966D01*
X52503Y37735D01*
X52599Y37522D01*
X52710Y37325D01*
X52838Y37145D01*
X52982Y36983D01*
X53142Y36837D01*
X53318Y36709D01*
X53510Y36598D01*
X53719Y36504D01*
X53943Y36427D01*
X54183Y36367D01*
X54440Y36324D01*
X54712Y36298D01*
X55001Y36290D01*
X55291Y36299D01*
X55565Y36327D01*
X55822Y36372D01*
X56064Y36437D01*
X56290Y36519D01*
X56500Y36620D01*
X56693Y36739D01*
X56871Y36877D01*
X57030Y37032D01*
X57168Y37206D01*
X57285Y37397D01*
X57380Y37606D01*
X57454Y37833D01*
X57507Y38077D01*
X57539Y38339D01*
X57550Y38620D01*
X57538Y38865D01*
X57501Y39096D01*
X57441Y39313D01*
X57356Y39516D01*
X57247Y39706D01*
X57114Y39882D01*
X56956Y40044D01*
X56775Y40192D01*
X56570Y40324D01*
X56344Y40439D01*
X56097Y40536D01*
X55828Y40615D01*
X55537Y40677D01*
X55225Y40721D01*
X54892Y40748D01*
X54537Y40757D01*
X53644Y40757D01*
X53644Y42123D01*
X54502Y42123D01*
X54817Y42132D01*
X55114Y42158D01*
X55392Y42202D01*
X55653Y42264D01*
X55895Y42344D01*
X56119Y42441D01*
X56324Y42556D01*
X56512Y42688D01*
X56679Y42836D01*
X56824Y42998D01*
X56947Y43173D01*
X57047Y43361D01*
X57125Y43563D01*
X57181Y43779D01*
X57215Y44009D01*
X57226Y44251D01*
X57217Y44492D01*
X57189Y44720D01*
X57144Y44935D01*
X57080Y45137D01*
X56998Y45326D01*
X56898Y45502D01*
X56780Y45665D01*
X56643Y45815D01*
X56489Y45949D01*
X56317Y46066D01*
X56127Y46164D01*
X55920Y46245D01*
X55695Y46308D01*
X55452Y46353D01*
X55192Y46379D01*
X54914Y46388D01*
X54659Y46380D01*
X54417Y46355D01*
X54188Y46313D01*
X53971Y46255D01*
X53766Y46180D01*
X53574Y46088D01*
X53395Y45979D01*
X53228Y45854D01*
X53075Y45714D01*
X52939Y45560D01*
X52820Y45392D01*
X52718Y45210D01*
X52633Y45015D01*
X52565Y44806D01*
X52513Y44584D01*
X52479Y44348D01*
X50893Y44470D01*
X50951Y44839D01*
X51038Y45186D01*
X51152Y45513D01*
X51295Y45819D01*
X51466Y46104D01*
X51666Y46369D01*
X51894Y46612D01*
X52150Y46835D01*
X52430Y47034D01*
X52730Y47207D01*
X53048Y47353D01*
X53386Y47472D01*
X53744Y47565D01*
X54120Y47632D01*
X54516Y47671D01*
X54931Y47685D01*
X55382Y47671D01*
X55808Y47631D01*
X56207Y47563D01*
X56581Y47469D01*
X56929Y47348D01*
X57251Y47199D01*
X57547Y47024D01*
X57817Y46822D01*
X58058Y46596D01*
X58267Y46348D01*
X58444Y46080D01*
X58589Y45790D01*
X58701Y45478D01*
X58782Y45146D01*
X58830Y44793D01*
X58846Y44418D01*
X58836Y44129D01*
X58805Y43854D01*
X58753Y43593D01*
X58681Y43346D01*
X58588Y43113D01*
X58474Y42893D01*
X58340Y42687D01*
X58185Y42495D01*
X58010Y42318D01*
X57817Y42155D01*
X57605Y42007D01*
X57374Y41875D01*
X57124Y41757D01*
X56855Y41654D01*
X56568Y41566D01*
X56262Y41492D01*
X56262Y41457D01*
X56599Y41410D01*
X56916Y41344D01*
X57214Y41257D01*
X57493Y41151D01*
X57753Y41025D01*
X57993Y40879D01*
X58215Y40714D01*
X58417Y40529D01*
X58598Y40328D01*
X58754Y40114D01*
X58887Y39888D01*
X58995Y39649D01*
X59079Y39397D01*
X59140Y39133D01*
X59176Y38856D01*
X59188Y38567D01*
X59171Y38152D01*
X59120Y37761D01*
X59035Y37395D01*
X58916Y37052D01*
X58763Y36733D01*
X58577Y36439D01*
X58356Y36168D01*
X58102Y35922D01*
X57816Y35702D01*
X57501Y35512D01*
X57157Y35351D01*
X56783Y35219D01*
X56381Y35117D01*
X55950Y35043D01*
X55490Y35000D01*
X55001Y34985D01*
G37*
G36*
X77716Y25160D02*
X76227Y25160D01*
X76227Y27954D01*
X70412Y27954D01*
X70412Y29180D01*
X76061Y37501D01*
X77716Y37501D01*
X77716Y29198D01*
X79450Y29198D01*
X79450Y27954D01*
X77716Y27954D01*
X77716Y25160D01*
G37*
%LPC*%
G36*
X76227Y29198D02*
X76227Y35723D01*
X75982Y35259D01*
X75641Y34681D01*
X72479Y30021D01*
X72006Y29373D01*
X71866Y29198D01*
X76227Y29198D01*
G37*
%LPD*%
G36*
X94843Y34985D02*
X94423Y34997D01*
X94022Y35032D01*
X93643Y35091D01*
X93284Y35173D01*
X92947Y35279D01*
X92630Y35409D01*
X92334Y35562D01*
X92058Y35738D01*
X91805Y35937D01*
X91577Y36157D01*
X91373Y36398D01*
X91193Y36660D01*
X91038Y36943D01*
X90907Y37247D01*
X90800Y37573D01*
X90718Y37919D01*
X92312Y38103D01*
X92381Y37881D01*
X92462Y37674D01*
X92555Y37481D01*
X92660Y37302D01*
X92777Y37138D01*
X92907Y36987D01*
X93049Y36852D01*
X93203Y36730D01*
X93370Y36623D01*
X93549Y36530D01*
X93740Y36451D01*
X93943Y36387D01*
X94158Y36337D01*
X94386Y36301D01*
X94626Y36279D01*
X94879Y36272D01*
X95187Y36284D01*
X95479Y36320D01*
X95753Y36380D01*
X96011Y36464D01*
X96250Y36572D01*
X96473Y36703D01*
X96679Y36859D01*
X96867Y37039D01*
X97035Y37239D01*
X97181Y37458D01*
X97304Y37694D01*
X97405Y37949D01*
X97484Y38221D01*
X97540Y38511D01*
X97574Y38819D01*
X97585Y39145D01*
X97574Y39429D01*
X97540Y39700D01*
X97483Y39956D01*
X97404Y40198D01*
X97303Y40427D01*
X97178Y40641D01*
X97032Y40842D01*
X96862Y41028D01*
X96674Y41197D01*
X96470Y41342D01*
X96250Y41466D01*
X96014Y41567D01*
X95762Y41645D01*
X95495Y41702D01*
X95212Y41735D01*
X94914Y41746D01*
X94599Y41734D01*
X94296Y41696D01*
X94004Y41633D01*
X93722Y41545D01*
X93446Y41427D01*
X93171Y41273D01*
X92895Y41085D01*
X92619Y40862D01*
X91077Y40862D01*
X91489Y47501D01*
X98505Y47501D01*
X98505Y46161D01*
X92925Y46161D01*
X92689Y42246D01*
X92953Y42430D01*
X93232Y42591D01*
X93528Y42726D01*
X93838Y42837D01*
X94165Y42923D01*
X94507Y42985D01*
X94864Y43022D01*
X95238Y43034D01*
X95681Y43017D01*
X96102Y42967D01*
X96500Y42884D01*
X96874Y42767D01*
X97226Y42617D01*
X97554Y42433D01*
X97859Y42216D01*
X98141Y41965D01*
X98395Y41688D01*
X98614Y41391D01*
X98800Y41073D01*
X98952Y40735D01*
X99071Y40377D01*
X99155Y39998D01*
X99206Y39599D01*
X99223Y39180D01*
X99205Y38705D01*
X99150Y38256D01*
X99060Y37832D01*
X98933Y37435D01*
X98769Y37064D01*
X98570Y36718D01*
X98334Y36399D01*
X98062Y36106D01*
X97758Y35843D01*
X97426Y35615D01*
X97066Y35423D01*
X96677Y35265D01*
X96261Y35143D01*
X95816Y35055D01*
X95344Y35002D01*
X94843Y34985D01*
G37*
G36*
X115203Y24985D02*
X114946Y24991D01*
X114697Y25009D01*
X114222Y25082D01*
X113777Y25203D01*
X113363Y25372D01*
X112980Y25590D01*
X112628Y25857D01*
X112306Y26172D01*
X112014Y26535D01*
X111756Y26945D01*
X111532Y27398D01*
X111342Y27896D01*
X111187Y28438D01*
X111066Y29024D01*
X110980Y29654D01*
X110928Y30328D01*
X110911Y31046D01*
X110929Y31824D01*
X110983Y32555D01*
X111072Y33241D01*
X111198Y33879D01*
X111359Y34471D01*
X111556Y35017D01*
X111789Y35516D01*
X112058Y35968D01*
X112360Y36370D01*
X112693Y36719D01*
X113056Y37014D01*
X113449Y37256D01*
X113872Y37443D01*
X114095Y37517D01*
X114326Y37577D01*
X114565Y37624D01*
X114810Y37658D01*
X115064Y37678D01*
X115325Y37685D01*
X115666Y37675D01*
X115991Y37645D01*
X116300Y37596D01*
X116593Y37528D01*
X116870Y37439D01*
X117130Y37331D01*
X117374Y37204D01*
X117602Y37056D01*
X117814Y36889D01*
X118010Y36703D01*
X118190Y36497D01*
X118353Y36271D01*
X118501Y36025D01*
X118632Y35760D01*
X118747Y35475D01*
X118846Y35171D01*
X117340Y34900D01*
X117206Y35253D01*
X117039Y35559D01*
X116836Y35818D01*
X116600Y36029D01*
X116328Y36194D01*
X116023Y36312D01*
X115682Y36382D01*
X115308Y36406D01*
X114980Y36386D01*
X114671Y36327D01*
X114382Y36229D01*
X114111Y36092D01*
X113859Y35915D01*
X113627Y35699D01*
X113413Y35444D01*
X113219Y35149D01*
X113045Y34817D01*
X112895Y34450D01*
X112768Y34048D01*
X112664Y33611D01*
X112583Y33138D01*
X112525Y32631D01*
X112490Y32088D01*
X112479Y31510D01*
X112715Y31885D01*
X112995Y32212D01*
X113319Y32491D01*
X113687Y32723D01*
X114091Y32905D01*
X114524Y33035D01*
X114751Y33081D01*
X114985Y33113D01*
X115226Y33133D01*
X115474Y33139D01*
X115890Y33122D01*
X116284Y33072D01*
X116656Y32989D01*
X117006Y32872D01*
X117334Y32722D01*
X117639Y32538D01*
X117923Y32321D01*
X118185Y32070D01*
X118420Y31792D01*
X118624Y31490D01*
X118796Y31166D01*
X118937Y30818D01*
X119047Y30447D01*
X119125Y30054D01*
X119172Y29637D01*
X119188Y29198D01*
X119171Y28722D01*
X119121Y28273D01*
X119039Y27849D01*
X118923Y27450D01*
X118774Y27078D01*
X118592Y26731D01*
X118376Y26410D01*
X118128Y26115D01*
X117850Y25850D01*
X117548Y25620D01*
X117220Y25426D01*
X116867Y25267D01*
X116488Y25144D01*
X116085Y25055D01*
X115656Y25003D01*
X115203Y24985D01*
G37*
%LPC*%
G36*
X115150Y26255D02*
X115427Y26267D01*
X115689Y26303D01*
X115935Y26363D01*
X116166Y26446D01*
X116382Y26554D01*
X116582Y26686D01*
X116767Y26842D01*
X116937Y27021D01*
X117089Y27222D01*
X117220Y27440D01*
X117332Y27677D01*
X117423Y27931D01*
X117494Y28203D01*
X117544Y28493D01*
X117575Y28802D01*
X117585Y29128D01*
X117575Y29453D01*
X117544Y29759D01*
X117493Y30046D01*
X117421Y30314D01*
X117328Y30563D01*
X117215Y30793D01*
X117082Y31003D01*
X116928Y31195D01*
X116756Y31365D01*
X116567Y31513D01*
X116363Y31638D01*
X116142Y31740D01*
X115905Y31819D01*
X115652Y31876D01*
X115383Y31910D01*
X115097Y31922D01*
X114828Y31912D01*
X114572Y31881D01*
X114330Y31831D01*
X114100Y31761D01*
X113884Y31670D01*
X113681Y31559D01*
X113491Y31429D01*
X113315Y31278D01*
X113156Y31109D01*
X113018Y30926D01*
X112901Y30727D01*
X112806Y30513D01*
X112732Y30283D01*
X112679Y30039D01*
X112647Y29779D01*
X112636Y29504D01*
X112647Y29155D01*
X112680Y28823D01*
X112735Y28506D01*
X112813Y28206D01*
X112912Y27922D01*
X113033Y27653D01*
X113176Y27402D01*
X113341Y27166D01*
X113524Y26952D01*
X113719Y26767D01*
X113926Y26611D01*
X114146Y26483D01*
X114378Y26383D01*
X114623Y26312D01*
X114880Y26269D01*
X115150Y26255D01*
G37*
%LPD*%
G36*
X134843Y35160D02*
X133197Y35160D01*
X133213Y35755D01*
X133260Y36358D01*
X133338Y36969D01*
X133448Y37587D01*
X133589Y38214D01*
X133761Y38848D01*
X133965Y39490D01*
X134200Y40139D01*
X134471Y40805D01*
X134785Y41496D01*
X135141Y42212D01*
X135539Y42952D01*
X135978Y43717D01*
X136460Y44507D01*
X136984Y45321D01*
X137550Y46161D01*
X130920Y46161D01*
X130920Y47501D01*
X139074Y47501D01*
X139074Y46222D01*
X138197Y44855D01*
X137460Y43645D01*
X136862Y42591D01*
X136402Y41694D01*
X136037Y40878D01*
X135720Y40067D01*
X135452Y39262D01*
X135233Y38462D01*
X135063Y37658D01*
X134941Y36839D01*
X134868Y36007D01*
X134850Y35585D01*
X134843Y35160D01*
G37*
G36*
X115203Y24985D02*
X114946Y24991D01*
X114697Y25009D01*
X114222Y25082D01*
X113777Y25203D01*
X113363Y25372D01*
X112980Y25590D01*
X112628Y25857D01*
X112306Y26172D01*
X112014Y26535D01*
X111756Y26945D01*
X111532Y27398D01*
X111342Y27896D01*
X111187Y28438D01*
X111066Y29024D01*
X110980Y29654D01*
X110928Y30328D01*
X110911Y31046D01*
X110929Y31824D01*
X110983Y32555D01*
X111072Y33241D01*
X111198Y33879D01*
X111359Y34471D01*
X111556Y35017D01*
X111789Y35516D01*
X112058Y35968D01*
X112360Y36370D01*
X112693Y36719D01*
X113056Y37014D01*
X113449Y37256D01*
X113872Y37443D01*
X114095Y37517D01*
X114326Y37577D01*
X114565Y37624D01*
X114810Y37658D01*
X115064Y37678D01*
X115325Y37685D01*
X115666Y37675D01*
X115991Y37645D01*
X116300Y37596D01*
X116593Y37528D01*
X116870Y37439D01*
X117130Y37331D01*
X117374Y37204D01*
X117602Y37056D01*
X117814Y36889D01*
X118010Y36703D01*
X118190Y36497D01*
X118353Y36271D01*
X118501Y36025D01*
X118632Y35760D01*
X118747Y35475D01*
X118846Y35171D01*
X117340Y34900D01*
X117206Y35253D01*
X117039Y35559D01*
X116836Y35818D01*
X116600Y36029D01*
X116328Y36194D01*
X116023Y36312D01*
X115682Y36382D01*
X115308Y36406D01*
X114980Y36386D01*
X114671Y36327D01*
X114382Y36229D01*
X114111Y36092D01*
X113859Y35915D01*
X113627Y35699D01*
X113413Y35444D01*
X113219Y35149D01*
X113045Y34817D01*
X112895Y34450D01*
X112768Y34048D01*
X112664Y33611D01*
X112583Y33138D01*
X112525Y32631D01*
X112490Y32088D01*
X112479Y31510D01*
X112715Y31885D01*
X112995Y32212D01*
X113319Y32491D01*
X113687Y32723D01*
X114091Y32905D01*
X114524Y33035D01*
X114751Y33081D01*
X114985Y33113D01*
X115226Y33133D01*
X115474Y33139D01*
X115890Y33122D01*
X116284Y33072D01*
X116656Y32989D01*
X117006Y32872D01*
X117334Y32722D01*
X117639Y32538D01*
X117923Y32321D01*
X118185Y32070D01*
X118420Y31792D01*
X118624Y31490D01*
X118796Y31166D01*
X118937Y30818D01*
X119047Y30447D01*
X119125Y30054D01*
X119172Y29637D01*
X119188Y29198D01*
X119171Y28722D01*
X119121Y28273D01*
X119039Y27849D01*
X118923Y27450D01*
X118774Y27078D01*
X118592Y26731D01*
X118376Y26410D01*
X118128Y26115D01*
X117850Y25850D01*
X117548Y25620D01*
X117220Y25426D01*
X116867Y25267D01*
X116488Y25144D01*
X116085Y25055D01*
X115656Y25003D01*
X115203Y24985D01*
G37*
%LPC*%
G36*
X115150Y26255D02*
X115427Y26267D01*
X115689Y26303D01*
X115935Y26363D01*
X116166Y26446D01*
X116382Y26554D01*
X116582Y26686D01*
X116767Y26842D01*
X116937Y27021D01*
X117089Y27222D01*
X117220Y27440D01*
X117332Y27677D01*
X117423Y27931D01*
X117494Y28203D01*
X117544Y28493D01*
X117575Y28802D01*
X117585Y29128D01*
X117575Y29453D01*
X117544Y29759D01*
X117493Y30046D01*
X117421Y30314D01*
X117328Y30563D01*
X117215Y30793D01*
X117082Y31003D01*
X116928Y31195D01*
X116756Y31365D01*
X116567Y31513D01*
X116363Y31638D01*
X116142Y31740D01*
X115905Y31819D01*
X115652Y31876D01*
X115383Y31910D01*
X115097Y31922D01*
X114828Y31912D01*
X114572Y31881D01*
X114330Y31831D01*
X114100Y31761D01*
X113884Y31670D01*
X113681Y31559D01*
X113491Y31429D01*
X113315Y31278D01*
X113156Y31109D01*
X113018Y30926D01*
X112901Y30727D01*
X112806Y30513D01*
X112732Y30283D01*
X112679Y30039D01*
X112647Y29779D01*
X112636Y29504D01*
X112647Y29155D01*
X112680Y28823D01*
X112735Y28506D01*
X112813Y28206D01*
X112912Y27922D01*
X113033Y27653D01*
X113176Y27402D01*
X113341Y27166D01*
X113524Y26952D01*
X113719Y26767D01*
X113926Y26611D01*
X114146Y26483D01*
X114378Y26383D01*
X114623Y26312D01*
X114880Y26269D01*
X115150Y26255D01*
G37*
%LPD*%
G36*
X154992Y24985D02*
X154511Y25000D01*
X154057Y25043D01*
X153629Y25117D01*
X153229Y25219D01*
X152855Y25351D01*
X152509Y25512D01*
X152189Y25702D01*
X151896Y25922D01*
X151634Y26169D01*
X151408Y26440D01*
X151216Y26736D01*
X151059Y27056D01*
X150937Y27401D01*
X150849Y27771D01*
X150797Y28166D01*
X150780Y28585D01*
X150790Y28881D01*
X150823Y29165D01*
X150877Y29437D01*
X150952Y29697D01*
X151050Y29945D01*
X151169Y30181D01*
X151309Y30405D01*
X151471Y30617D01*
X151650Y30812D01*
X151841Y30988D01*
X152045Y31143D01*
X152260Y31278D01*
X152487Y31393D01*
X152726Y31487D01*
X152977Y31561D01*
X153241Y31615D01*
X153241Y31650D01*
X152995Y31718D01*
X152764Y31803D01*
X152545Y31905D01*
X152340Y32025D01*
X152148Y32161D01*
X151969Y32315D01*
X151803Y32486D01*
X151651Y32675D01*
X151514Y32876D01*
X151396Y33086D01*
X151296Y33304D01*
X151214Y33531D01*
X151150Y33766D01*
X151105Y34010D01*
X151078Y34262D01*
X151069Y34523D01*
X151085Y34867D01*
X151135Y35195D01*
X151217Y35505D01*
X151332Y35799D01*
X151481Y36077D01*
X151662Y36338D01*
X151877Y36582D01*
X152124Y36809D01*
X152399Y37014D01*
X152697Y37192D01*
X153017Y37343D01*
X153360Y37466D01*
X153725Y37562D01*
X154114Y37630D01*
X154524Y37671D01*
X154957Y37685D01*
X155401Y37671D01*
X155820Y37631D01*
X156216Y37564D01*
X156588Y37470D01*
X156935Y37349D01*
X157259Y37202D01*
X157559Y37028D01*
X157835Y36826D01*
X158082Y36602D01*
X158296Y36359D01*
X158478Y36098D01*
X158626Y35817D01*
X158742Y35517D01*
X158824Y35199D01*
X158873Y34862D01*
X158890Y34505D01*
X158881Y34245D01*
X158853Y33992D01*
X158807Y33749D01*
X158743Y33513D01*
X158661Y33287D01*
X158560Y33068D01*
X158441Y32859D01*
X158303Y32657D01*
X158150Y32469D01*
X157983Y32300D01*
X157965Y32285D01*
X157803Y32149D01*
X157609Y32016D01*
X157402Y31901D01*
X157181Y31805D01*
X156948Y31727D01*
X156700Y31668D01*
X156700Y31633D01*
X156988Y31575D01*
X157259Y31498D01*
X157513Y31401D01*
X157751Y31286D01*
X157973Y31151D01*
X158178Y30996D01*
X158367Y30823D01*
X158506Y30667D01*
X158540Y30630D01*
X158694Y30421D01*
X158827Y30199D01*
X158940Y29965D01*
X159032Y29718D01*
X159104Y29458D01*
X159155Y29185D01*
X159186Y28900D01*
X159196Y28602D01*
X159180Y28187D01*
X159129Y27795D01*
X159044Y27427D01*
X158925Y27083D01*
X158772Y26761D01*
X158586Y26464D01*
X158365Y26190D01*
X158110Y25940D01*
X157824Y25716D01*
X157508Y25522D01*
X157163Y25358D01*
X156788Y25223D01*
X156383Y25119D01*
X155949Y25045D01*
X155486Y25000D01*
X154992Y24985D01*
G37*
%LPC*%
G36*
X155010Y26167D02*
X155322Y26177D01*
X155613Y26206D01*
X155883Y26254D01*
X156133Y26322D01*
X156363Y26408D01*
X156572Y26515D01*
X156760Y26640D01*
X156928Y26785D01*
X157076Y26951D01*
X157204Y27139D01*
X157312Y27351D01*
X157401Y27585D01*
X157470Y27842D01*
X157519Y28122D01*
X157549Y28425D01*
X157559Y28751D01*
X157548Y29029D01*
X157516Y29289D01*
X157463Y29532D01*
X157388Y29757D01*
X157292Y29965D01*
X157174Y30154D01*
X157036Y30326D01*
X156875Y30481D01*
X156696Y30617D01*
X156499Y30736D01*
X156285Y30836D01*
X156054Y30918D01*
X155806Y30981D01*
X155540Y31027D01*
X155257Y31054D01*
X154957Y31063D01*
X154666Y31053D01*
X154390Y31024D01*
X154131Y30975D01*
X153889Y30907D01*
X153663Y30819D01*
X153453Y30711D01*
X153260Y30584D01*
X153083Y30437D01*
X152925Y30273D01*
X152788Y30095D01*
X152672Y29901D01*
X152577Y29694D01*
X152503Y29471D01*
X152451Y29234D01*
X152419Y28982D01*
X152409Y28716D01*
X152419Y28407D01*
X152449Y28119D01*
X152500Y27850D01*
X152571Y27601D01*
X152663Y27372D01*
X152774Y27163D01*
X152907Y26974D01*
X153059Y26804D01*
X153232Y26655D01*
X153425Y26526D01*
X153638Y26416D01*
X153872Y26327D01*
X154126Y26257D01*
X154400Y26207D01*
X154695Y26177D01*
X155010Y26167D01*
G37*
G36*
X154975Y32246D02*
X155245Y32254D01*
X155498Y32278D01*
X155735Y32318D01*
X155955Y32374D01*
X156158Y32446D01*
X156345Y32534D01*
X156516Y32638D01*
X156670Y32758D01*
X156806Y32896D01*
X156924Y33054D01*
X157025Y33232D01*
X157106Y33429D01*
X157170Y33647D01*
X157216Y33884D01*
X157243Y34141D01*
X157252Y34418D01*
X157243Y34671D01*
X157216Y34908D01*
X157171Y35129D01*
X157109Y35334D01*
X157028Y35522D01*
X156929Y35693D01*
X156813Y35849D01*
X156678Y35988D01*
X156526Y36110D01*
X156356Y36217D01*
X156167Y36307D01*
X155961Y36380D01*
X155737Y36437D01*
X155495Y36478D01*
X155235Y36503D01*
X154957Y36511D01*
X154688Y36503D01*
X154434Y36478D01*
X154198Y36437D01*
X153977Y36380D01*
X153774Y36306D01*
X153587Y36215D01*
X153416Y36109D01*
X153263Y35986D01*
X153126Y35846D01*
X153008Y35691D01*
X152908Y35519D01*
X152826Y35331D01*
X152762Y35127D01*
X152717Y34907D01*
X152689Y34670D01*
X152680Y34418D01*
X152689Y34161D01*
X152718Y33919D01*
X152764Y33694D01*
X152830Y33484D01*
X152914Y33290D01*
X153018Y33111D01*
X153139Y32949D01*
X153280Y32802D01*
X153438Y32671D01*
X153611Y32559D01*
X153800Y32463D01*
X154004Y32385D01*
X154223Y32324D01*
X154458Y32280D01*
X154709Y32254D01*
X154975Y32246D01*
G37*
%LPD*%
D10*
X47000Y203000D02*
X44000Y200000D01*
X44000Y143000D01*
X125000Y143000D01*
X125000Y203000D01*
X47000Y203000D01*
M02*
